<svg xmlns="http://www.w3.org/2000/svg" viewBox="0 0 16 16">
  <path d="m1.85 7.51.58-.29.92-1.37.28-.12.3 1.39-.39.06-.3-.57-.22.89H4l1.02.27.41-.27.68.72.3-1.33.48.49.3-.41.48-.13.7-.66.11-.33.58.1.24.32-.42.91 1.06-.55v-.27l.41-.1.44.45.44-.55v-.38l.72-.51.3-.43h.46l.82-1.69.7-.74.26.41-.4.53.14.34.4.08.32 1.41v1.18l.56.77.28 1.08-.96-.63-.42-1.8-.26.06-.04 1.21-.7 1.16-.2 1.76.48.12.2-.25.46.53.36 1.59-.04 1.02h-.44l-.16-1.44-.32.43-.68-.15-.56-.47-.64.23.04 1.02-.5.13-.74.57-.9-.12-.36-.21-.56.1.18.23-.44.27-.36-.17-.67.31-1.02-.51-.39-.91-.34.04-.4-.32-.02-.25-1.24-.13-.2.68-.78-.36-.4-.66h-.84l-.1 1.06-.48.15-.24.96-.18-.17-.78-2.03.93-.45-.14-.89-.15-.91.4-.59-.13-.36.56-.61.22.04v.02zm12.37 2.24.86 1.29.28-.12-.36-.53-.78-.83v.19-.01zM5.48 7.14v-.38l.65-.47.56-.29h-.66l-.58.34-.36.33v.47h.39z" class="layer"/>
</svg>
